<?xml version="1.0" standalone="no"?><!DOCTYPE svg PUBLIC "-//W3C//DTD SVG 1.1//EN" "http://www.w3.org/Graphics/SVG/1.1/DTD/svg11.dtd"><svg t="1768996948373" class="icon" viewBox="0 0 1024 1024" version="1.1" xmlns="http://www.w3.org/2000/svg" p-id="22843" xmlns:xlink="http://www.w3.org/1999/xlink" width="200" height="200"><path d="M909.824 272.128l-384-220.928a30.72 30.72 0 0 0-30.72 0l-384 221.696a30.72 30.72 0 0 0-15.36 25.6V742.4a30.72 30.72 0 0 0 15.36 25.6l384 221.696a30.72 30.72 0 0 0 30.72 0l384-221.696a30.72 30.72 0 0 0 15.36-25.6V298.752a30.72 30.72 0 0 0-15.36-26.624zM510.464 112.64l329.728 190.464-329.728 190.208-329.728-190.208z m-353.28 236.032L484.864 537.6v376.064L157.184 724.48z m378.88 564.992V537.6l327.68-189.184V724.48z" p-id="22844"></path><path d="M417.28 594.944l-172.032-99.328a25.6 25.6 0 0 0-25.6 44.288L391.68 640a25.6 25.6 0 0 0 25.6-44.288z" p-id="22845"></path></svg>