<?xml version="1.0" standalone="no"?><!DOCTYPE svg PUBLIC "-//W3C//DTD SVG 1.1//EN" "http://www.w3.org/Graphics/SVG/1.1/DTD/svg11.dtd"><svg t="1768996677953" class="icon" viewBox="0 0 1024 1024" version="1.1" xmlns="http://www.w3.org/2000/svg" p-id="4916" xmlns:xlink="http://www.w3.org/1999/xlink" width="200" height="200"><path d="M381.6448 896.9984l291.9168 2.58816 5.62944-73.4976-246.19264-8.2176-51.3536 79.12704z" fill="#8F8F8F" p-id="4917"></path><path d="M579.84 367.1296l91.4688-62.6176 83.5584 14.3104L652.8 450.6112l-72.96-83.4816z" fill="#C4C4C4" p-id="4918"></path><path d="M754.8672 318.8224l8.7808-115.5584-32.2816-23.5264-60.0576 124.7744 83.5584 14.3104z" fill="#9DA0A1" p-id="4919"></path><path d="M724.45696 102.0928l-26.6752-70.2208-26.2144 7.2192 13.3632 70.784-27.49696 99.6352 22.68416 18.7648 53.62944-14.7712 53.6064-14.7712 9.88416-27.7504-72.7808-68.8896z" fill="#EBEBEB" p-id="4920"></path><path d="M787.68896 173.2864l-39.37792-37.248-67.47904 19.6864-14.03136 50.8416 15.2576 12.6464 98.9696-27.2896 6.66112-18.6368z" fill="#785D87" p-id="4921"></path><path d="M684.31872 203.94752l4.39808-9.47456 9.472 4.39552-4.39552 9.47456-9.47456-4.39552zM684.26752 186.38336l1.89952-4.08576 4.08576 1.89952-1.89952 4.08576-4.08576-1.89952zM701.43488 198.53312l1.89952-4.08576 4.08576 1.89952-1.89952 4.08576-4.08576-1.89952zM701.4144 185.30048l1.89696-4.08576 4.08832 1.89952-1.89952 4.08576-4.08576-1.89952z" fill="#A687B9" p-id="4922"></path><path d="M718.76864 108.1856l16.87296-39.04 37.7856 57.2672-4.02176 18.2272-21.14304-8.3456-29.49376-28.1088z" fill="#DFBCA4" p-id="4923"></path><path d="M692.9664 101.632l27.6736 42.496 27.6224-7.8336-12.6208-67.1488-42.6752 32.4864z" fill="#C3977A" p-id="4924"></path><path d="M291.5328 1004.3136L579.84 1024l262.1952-29.824-256.6656-24.6784-293.8368 34.816z" fill="#2B2B2B" opacity=".1" p-id="4925"></path><path d="M482.7904 1007.0272l14.2592-23.19616-15.3088-38.85824-13.4144 19.8656 4.6336 42.1888h9.8304z" fill="#584164" p-id="4926"></path><path d="M517.6576 942.1568l3.6608-96.4352h-72.7552l33.1776 99.2512 24.9088 22.3744 11.008-25.1904z" fill="#C3977A" p-id="4927"></path><path d="M518.1696 928.5888l-45.1328-9.62816 5.4528 16.28416 39.68-6.656z" fill="#8A6651" p-id="4928"></path><path d="M481.7408 944.9728l35.9168-2.816 34.56 64.8704h-69.4272l-1.0496-62.0544z" fill="#785D87" p-id="4929"></path><path d="M608.3584 670.5408l148.8384 150.912-114.2016-218.4192-25.62304 18.0224-9.01376 49.4848z" fill="#EBEBEB" p-id="4930"></path><path d="M617.3696 661.0176l139.8272 160.4352-83.6352 78.1312-43.2384-119.2704-12.9536-119.296z" fill="#C4C4C4" p-id="4931"></path><path d="M565.0944 492.5952l52.2752 168.4224 25.6256-57.984 8.6272-134.0928-86.528 23.6544z" fill="#8F8F8F" p-id="4932"></path><path d="M525.91104 384.38912L579.84 504.192l71.7824-35.2512 1.1776-18.3296-72.96-83.4816-53.92896 17.25952z" fill="#DDDDDC" p-id="4933"></path><path d="M539.53024 393.49248s-49.37472 55.41888-62.19264 67.38176l41.86112 66.27072 61.29152-20.43136c-6.99648-26.93888-40.96-113.22112-40.96-113.22112z" fill="#584164" p-id="4934"></path><path d="M526.1696 384.73216l40.192 88.21504-53.69856-49.2416 13.50656-38.97344z" fill="#90759F" p-id="4935"></path><path d="M592.3328 556.416l-12.4672-52.1472-61.696 20.6592 9.9584 125.08416 0.6912 0.76544 88.5504 10.24-25.0368-104.6016z" fill="#584164" p-id="4936"></path><path d="M525.952 384.5888l54.0672 119.6544 15.3088-8.21248 27.4688-79.74912-96.8448-31.6928z" fill="#EBEBEB" p-id="4937"></path><path d="M660.1984 986.5984l7.9872-30.66624-10.7776-20.09856-12.8768-11.5712-7.0912 23.86176 11.2384 38.47424h11.52z" fill="#584164" p-id="4938"></path><path d="M677.4272 916.5568l-16.69376-70.8352H592l52.52864 78.5408 25.09056 30.4128 7.808-38.1184z" fill="#C3977A" p-id="4939"></path><path d="M660.736 845.7216l-52.3776-13.9264-16.3584 13.9264 13.74976 20.5312 54.98624-20.5312z" fill="#8A6651" p-id="4940"></path><path d="M644.5312 924.2624l32.89856-7.7056 71.93344 70.0416h-67.68384l-37.14816-62.336z" fill="#785D87" p-id="4941"></path><path d="M448.56576 641.50784l110.8736-7.8592 52.3264 46.67136 48.96768 165.40416-236.88192-0.76288 24.71424-203.45344z" fill="#785D87" p-id="4942"></path><path d="M528.1024 650.7008l132.6336 194.3552-43.3664-184.0384-43.008-14.0544-46.2592 3.7376z" fill="#90759F" p-id="4943"></path><path d="M259.9168 495.8976L178.432 439.1168l76.0832-22.8352 28.5952 10.4192-23.1936 69.1968z" fill="#95627B" p-id="4944"></path><path d="M387.7888 357.5296l-127.872 138.368-11.6736-187.5712 139.5456 49.2032z" fill="#532F42" p-id="4945"></path><path d="M284.672 110.2592L248.2432 202.88 171.0848 305.408l25.6512-172.3904 87.936-22.7584z" fill="#B3879D" p-id="4946"></path><path d="M284.672 110.2592L171.0848 305.408l108.3648-33.28 5.2224-161.8688z" fill="#95627B" p-id="4947"></path><path d="M171.0848 305.408l77.1584-39.6032 58.2144 20.608 53.8112 31.9232 27.52 39.1936-216.704-52.1216z" fill="#734D5F" p-id="4948"></path><path d="M248.2432 265.8048l104.192 55.1424-44.3904-69.0432-59.8016 13.9008z" fill="#532F42" p-id="4949"></path><path d="M535.5776 57.2416l18.5088 13.1072 76.2368 212.1984-83.7632 36.608-33.33376 105.09568-80.22784-44.73088-102.3744-123.008-29.4912-170.752 170.9824-77.4656 63.4624 48.9472z" fill="#DFBCA4" p-id="4950"></path><path d="M515.34848 423.71072l8.56832-27.6736-41.5872-38.07232-85.0432-213.7344-31.1296-26.5472-65.024 150.1696 51.3024 53.0944 14.1312 7.7568 21.2224 28.8256 45.2096 46.7968 35.9936 19.2256 46.35648 0.15872z" fill="#C3977A" p-id="4951"></path><path d="M448.5632 362.1888l73.7536 33.6896 1.60768 0.4096 22.63552-77.1328-97.9968 43.0336z" fill="#8A6651" p-id="4952"></path><path d="M366.1568 117.6832l93.0048-33.1776 29.5168-32.7168L473.5232 0l-181.9904 81.0496 32.2816 48.4096 42.3424-11.776z" fill="#B3879D" p-id="4953"></path><path d="M352.4352 320.9472l15.1552-21.0688 20.1984 57.6512-35.3536-36.5824z" fill="#8A6651" p-id="4954"></path><path d="M352.4352 320.9472l24.4736-34.0736-56.4736-63.5648-19.3024 44.544 51.3024 53.0944z" fill="#DFBCA4" p-id="4955"></path><path d="M326.5792 246.8864l22.144 27.0848-36.4544-6.9376 14.3104-20.1472z" fill="#8A6651" p-id="4956"></path><path d="M390.8352 300.8768l-11.1104 11.1616-23.6288-23.68 11.6992-11.7504 23.04 24.2688z" fill="#FFFFFF" p-id="4957"></path><path d="M473.5232 0l-14.3616 84.5056 76.416-27.264L473.5232 0z" fill="#95627B" p-id="4958"></path><path d="M320.4352 223.3088l47.36 53.2992 19.8912-29.3632-50.2528-63.232 28.7232-66.3296-74.624-36.6336-43.2896 184.7552 36.4032 1.408 16.4864 0.64 19.3024-44.544z" fill="#734D5F" p-id="4959"></path><path d="M432.9984 404.3264l62.0032 79.0784 29.87008 42.60352 3.23072 124.69248-79.28064-8.91648-78.69696-174.73792 62.8736-62.72z" fill="#DDDDDC" p-id="4960"></path><path d="M432.9984 404.3264l-14.1824 77.2096 76.1856 1.8688-21.7088-37.0432-40.2944-42.0352z" fill="#EBEBEB" p-id="4961"></path><path d="M592.3328 556.416l-12.4672-52.1472-61.696 20.6592 9.9584 125.08416 0.6912 0.76544 88.5504 10.24-25.0368-104.6016z" fill="#584164" p-id="4962"></path><path d="M452.8384 470.4512l-8.0128 37.5296 64.6656 31.3088 23.0144-11.4944-40.05888-48.04864-39.60832-9.29536z" fill="#EBEBEB" p-id="4963"></path><path d="M432.9984 404.3264l62.0032 79.0784 14.4896 55.8848 18.6112 111.4112-9.9328 277.89056-148.0448-31.59296 95.5904-263.3472-95.5904-166.6048 62.8736-62.72z" fill="#DDDDDC" p-id="4964"></path><path d="M528.1024 650.7008l-157.9776 246.2976 78.4384-255.488 42.5216-7.8592 37.0176 17.0496z" fill="#C4C4C4" p-id="4965"></path><path d="M532.5056 527.872l-63.5136 11.42016-46.7968 43.52 26.368 58.69824 79.5392 9.1904 4.4032-122.8288z" fill="#8F8F8F" p-id="4966"></path><path d="M432.9984 404.3264l-14.1824 77.2096 76.1856 1.8688-21.7088-37.0432-40.2944-42.0352z" fill="#EBEBEB" p-id="4967"></path><path d="M513.5872 423.552l-16.0256 27.0592-20.224 10.2656-44.3392-56.5504 80.5888 19.2256z" fill="#90759F" p-id="4968"></path><path d="M513.6896 423.5776l-0.1024-0.0256-36.2496 37.3248 17.664 22.528 24.96-21.1712-6.272-38.656z" fill="#584164" p-id="4969"></path><path d="M421.42976 470.31808l-8.0128 37.5296 64.6656 31.3088 51.25376-12.97408-38.36416-48-69.5424-7.86432z" fill="#EBEBEB" p-id="4970"></path><path d="M555.47136 219.5456l-8.6784 16.9728-21.0688-6.1952 29.7472-10.7776z" fill="#8A6651" p-id="4971"></path><path d="M420.9152 155.1104l15.5392-2.8672 10.2144-12.7232h22.3232l-29.8752-7.0656-18.2016 22.656zM519.8336 125.0048l11.95776-3.9936 7.9872-18.8416h17.2544l-23.1168-6.656-14.08 29.4912z" fill="#734D5F" p-id="4972"></path><path d="M480.5376 278.1696l30.7712-8.2432 27.136 8.2432-16.128-17.5104-10.3168 3.072-5.504-5.1456-25.9584 19.584z" fill="#584164" p-id="4973"></path><path d="M482.176 277.7344l16.768 5.9136 29.8752-8.3968-17.5104-5.3248-29.1328 7.808z" fill="#90759F" p-id="4974"></path><path d="M578.9184 181.6576l-30.1312 21.2224-8.5248-14.2592 38.656-6.9632zM444.9536 230.3232l75.8528-12.3136-0.384-21.1456-75.4688 33.4592zM427.264 181.5808l63.8208-0.512-7.8592-19.8144-55.9616 20.3264zM564.1216 131.9424L546.56 160l-8.1152-18.9696 25.6768-9.088z" fill="#C3977A" p-id="4975"></path><path d="M555.4688 219.5456l-29.7472 10.7776-34.6368-86.5536 29.7216-10.752 34.6624 86.528z" fill="#E8C9B6" p-id="4976"></path><path d="M320.4352 223.3088l-10.2144 23.5776-9.088-30.5408 108.0576-42.8032 11.7248 28.9536-100.48 20.8128z" fill="#584164" p-id="4977"></path><path d="M545.46176 193.8432l74.6752-27.1616-24.1152-60.9024-186.88 67.7632 24.6528 60.8256L515.2 204.8l-19.0464-48.0768 29.7728-10.9568 19.5328 48.0768z m-103.8848 23.04l-14.3104-35.3024L483.2256 161.28l14.0032 35.3536-55.6544 20.2496zM602.16576 158.72l-48.9472 17.664-14.336-35.328 49.28-17.92 14.0032 35.584z" fill="#584164" p-id="4978"></path><path d="M476.0832 178.8416a8.3712 8.3712 0 1 1 0 16.7424 8.3712 8.3712 0 0 1 0-16.7424zM568.2176 144.7424a8.3712 8.3712 0 1 1 0 16.74752 8.3712 8.3712 0 0 1 0-16.74752z" fill="#2B2B2B" p-id="4979"></path><path d="M370.1248 467.0464l52.0448 115.7632 173.2096-86.2464-48.8192-14.8224-51.5584 1.664-124.8768-16.3584z" fill="#9DA0A1" p-id="4980"></path><path d="M595.3536 496.5632l-15.5136-129.4336-18.71104-22.2464h-22.6816l-43.44576 138.5216 100.352 13.1584z" fill="#C4C4C4" p-id="4981"></path><path d="M538.4448 344.8832l20.096-66.0736 35.8656 15.5136 17.3568 29.2864-31.9232 43.52-41.3952-22.2464zM558.5408 278.8096l47.744-14.3872 24.0384 18.1248-29.3632 10.8288-42.4192-14.5664z" fill="#C3977A" p-id="4982"></path><path d="M558.5408 278.8096l71.7824 3.7376 4.5824 32.768-23.1424 8.2944-53.2224-44.8z" fill="#DFBCA4" p-id="4983"></path></svg>