<?xml version="1.0" standalone="no"?><!DOCTYPE svg PUBLIC "-//W3C//DTD SVG 1.1//EN" "http://www.w3.org/Graphics/SVG/1.1/DTD/svg11.dtd"><svg t="1768997094824" class="icon" viewBox="0 0 1024 1024" version="1.1" xmlns="http://www.w3.org/2000/svg" p-id="24847" xmlns:xlink="http://www.w3.org/1999/xlink" width="200" height="200"><path d="M85.333333 512a426.709333 426.709333 0 0 0 728.362667 301.696A426.709333 426.709333 0 0 0 210.304 210.346667 426.709333 426.709333 0 0 0 85.333333 512z m138.24 288.426667A404.992 404.992 0 0 1 104.106667 512c0-108.8 42.24-211.2 119.466666-288.426667A404.906667 404.906667 0 0 1 512 104.106667c108.8 0 211.2 42.24 288.426667 119.466666a404.992 404.992 0 0 1 119.466666 288.426667c0 108.8-42.24 211.2-119.466666 288.426667a404.906667 404.906667 0 0 1-288.426667 119.466666 404.906667 404.906667 0 0 1-288.426667-119.466666zM270.933333 405.333333c-85.76 97.706667-69.12 178.346667-69.12 178.346667s23.466667-55.466667 80.213334-114.346667c27.306667-26.88 47.36-36.266667 61.013333-36.266666 15.36 0 22.613333 11.093333 22.613333 21.333333v197.973333c0 19.626667-12.8 23.893333-24.32 23.466667-9.813333 0-19.2-3.413333-19.2-3.413333C380.586667 756.48 520.106667 768 520.106667 768l61.44-64h1.706666L640 752.213333c101.973333-60.586667 151.466667-172.8 151.466667-172.8-44.8 47.786667-75.093333 59.306667-92.16 58.88-15.36 0-21.76-8.96-21.76-8.96-0.426667-4.266667-2.56-249.6 0.426666-249.6 17.92-32.853333 74.24-99.84 74.24-99.84-105.386667 20.906667-162.986667 89.6-162.986666 89.6-17.066667-13.226667-52.053333-11.093333-52.053334-11.093333 16.213333 8.96 32.426667 34.56 32.426667 56.32v210.346667s-36.266667 31.146667-62.72 31.146666c-16.213333 0-26.026667-8.96-31.573333-16.213333-3.84-5.12-5.973333-8.96-5.973334-8.96v-260.266667a20.053333 20.053333 0 0 1-12.373333 4.693334c-5.973333-0.426667-11.946667-2.986667-15.786667-11.52-3.413333-6.4-5.12-16.213333-5.12-29.866667 0-48.213333 54.613333-79.786667 54.613334-79.786667-69.546667 18.346667-133.973333 53.76-219.733334 151.04z" fill="#13227a" p-id="24848"></path></svg>